<svg width="82" height="82" viewBox="0 0 82 82" fill="none" xmlns="http://www.w3.org/2000/svg">
<g opacity="0.78">
<path fill-rule="evenodd" clip-rule="evenodd" d="M62.9782 19.0218C60.7251 14.2161 57.3479 10.0236 53.132 6.79899C48.9161 3.57439 43.9857 1.41252 38.7577 0.496239C33.5297 -0.420045 28.1579 -0.0637907 23.0967 1.53487C18.0355 3.13353 13.4338 5.92757 9.68067 9.68067C5.92757 13.4338 3.13353 18.0355 1.53487 23.0967C-0.0637907 28.1579 -0.420045 33.5297 0.496239 38.7577C1.41252 43.9857 3.57439 48.9161 6.79899 53.132C10.0236 57.3479 14.2161 60.7251 19.0218 62.9782C21.2749 67.7839 24.6521 71.9764 28.868 75.201C33.0839 78.4256 38.0143 80.5875 43.2423 81.5038C48.4703 82.42 53.8421 82.0638 58.9033 80.4651C63.9645 78.8665 68.5662 76.0724 72.3193 72.3193C76.0724 68.5662 78.8665 63.9645 80.4651 58.9033C82.0638 53.8421 82.42 48.4703 81.5038 43.2423C80.5875 38.0143 78.4256 33.0839 75.201 28.868C71.9764 24.6521 67.7839 21.2749 62.9782 19.0218ZM2.65853 33.0662C2.65634 26.4081 4.84028 19.9334 8.87484 14.6369C12.9094 9.34033 18.5714 5.51497 24.9909 3.74848C31.4104 1.98198 38.2324 2.37208 44.4087 4.85884C50.585 7.34559 55.774 11.7914 59.1785 17.5134C57.922 17.1011 56.6417 16.7655 55.3445 16.5086C52.9663 13.3091 49.9268 10.6594 46.4328 8.73995C42.9388 6.82045 39.0723 5.67615 35.0964 5.38489C31.1205 5.09365 27.1285 5.66229 23.3921 7.05213C19.6557 8.44197 16.2625 10.6204 13.4434 13.4392C10.6244 16.2579 8.44561 19.6509 7.05539 23.3872C5.66517 27.1235 5.09612 31.1154 5.38696 35.0913C5.67781 39.0672 6.82172 42.9338 8.74086 46.428C10.66 49.9222 13.3093 52.962 16.5086 55.3405C16.7655 56.6377 17.1011 57.9181 17.5134 59.1746C12.9932 56.4763 9.24906 52.6532 6.64576 48.0777C4.04245 43.5023 2.66876 38.3305 2.65853 33.0662ZM31.7442 14.5572C31.7442 14.2957 31.8217 14.0401 31.967 13.8227C32.1122 13.6053 32.3187 13.4358 32.5603 13.3358C32.8019 13.2357 33.0677 13.2095 33.3242 13.2605C33.5806 13.3115 33.8162 13.4375 34.0011 13.6223C34.186 13.8072 34.3119 14.0428 34.3629 14.2993C34.4139 14.5557 34.3877 14.8216 34.2877 15.0631C34.1876 15.3047 34.0182 15.5112 33.8007 15.6565C33.5833 15.8017 33.3277 15.8793 33.0662 15.8793C32.7156 15.8793 32.3793 15.74 32.1314 15.492C31.8834 15.2441 31.7442 14.9078 31.7442 14.5572ZM34.3883 18.2802C35.2704 17.9683 36.0139 17.3546 36.4873 16.5476C36.9607 15.7406 37.1335 14.7922 36.9753 13.8701C36.8171 12.9479 36.338 12.1114 35.6227 11.5084C34.9073 10.9053 34.0018 10.5745 33.0662 10.5745C32.1306 10.5745 31.2251 10.9053 30.5098 11.5084C29.7945 12.1114 29.3153 12.9479 29.1571 13.8701C28.9989 14.7922 29.1718 15.7406 29.6452 16.5476C30.1186 17.3546 30.8621 17.9683 31.7442 18.2802V20.7101C29.1539 22.2964 26.7928 24.2296 24.7266 26.4559H22.4896V24.8905C23.3717 24.5787 24.1152 23.965 24.5886 23.158C25.062 22.351 25.2349 21.4026 25.0767 20.4804C24.9185 19.5583 24.4393 18.7218 23.724 18.1187C23.0087 17.5157 22.1032 17.1849 21.1676 17.1849C20.232 17.1849 19.3265 17.5157 18.6111 18.1187C17.8958 18.7218 17.4167 19.5583 17.2585 20.4804C17.1002 21.4026 17.2731 22.351 17.7465 23.158C18.2199 23.965 18.9634 24.5787 19.8455 24.8905V27.7779C19.8455 28.1286 19.9848 28.4648 20.2327 28.7128C20.4807 28.9607 20.8169 29.1 21.1676 29.1H22.5081C21.8674 29.9505 21.268 30.8319 20.7101 31.7442H18.2802C17.9683 30.8621 17.3546 30.1186 16.5476 29.6452C15.7406 29.1718 14.7922 28.9989 13.8701 29.1571C12.9479 29.3153 12.1114 29.7945 11.5084 30.5098C10.9053 31.2251 10.5745 32.1306 10.5745 33.0662C10.5745 34.0018 10.9053 34.9073 11.5084 35.6227C12.1114 36.338 12.9479 36.8171 13.8701 36.9753C14.7922 37.1335 15.7406 36.9607 16.5476 36.4873C17.3546 36.0139 17.9683 35.2704 18.2802 34.3883H19.2598C17.0314 38.9121 15.8747 43.8883 15.8793 48.9311C15.8793 49.7892 15.9229 50.6353 15.9864 51.4774C13.4864 49.1865 11.4761 46.413 10.0767 43.3243C8.67735 40.2356 7.91783 36.8955 7.84395 33.5054C7.77006 30.1152 8.38334 26.7452 9.64682 23.5984C10.9103 20.4517 12.7978 17.5933 15.1956 15.1956C17.5934 12.7979 20.4519 10.9105 23.5987 9.6471C26.7455 8.38374 30.1155 7.77059 33.5057 7.8446C36.8958 7.91861 40.2359 8.67825 43.3245 10.0777C46.4132 11.4772 49.1866 13.4876 51.4774 15.9877C50.6353 15.9229 49.7892 15.8793 48.9311 15.8793C43.8883 15.8747 38.9121 17.0314 34.3883 19.2598V18.2802ZM19.8455 21.1676C19.8455 20.9061 19.923 20.6505 20.0683 20.4331C20.2136 20.2156 20.4201 20.0462 20.6616 19.9461C20.9032 19.8461 21.169 19.8199 21.4255 19.8709C21.6819 19.9219 21.9175 20.0478 22.1024 20.2327C22.2873 20.4176 22.4132 20.6532 22.4642 20.9096C22.5152 21.1661 22.4891 21.4319 22.389 21.6735C22.2889 21.9151 22.1195 22.1216 21.9021 22.2668C21.6847 22.4121 21.429 22.4896 21.1676 22.4896C20.8169 22.4896 20.4807 22.3504 20.2327 22.1024C19.9848 21.8545 19.8455 21.5182 19.8455 21.1676ZM15.8793 33.0662C15.8793 33.3277 15.8017 33.5833 15.6565 33.8007C15.5112 34.0182 15.3047 34.1876 15.0631 34.2877C14.8216 34.3877 14.5557 34.4139 14.2993 34.3629C14.0428 34.3119 13.8072 34.186 13.6223 34.0011C13.4375 33.8162 13.3115 33.5806 13.2605 33.3242C13.2095 33.0677 13.2357 32.8019 13.3358 32.5603C13.4358 32.3187 13.6053 32.1122 13.8227 31.967C14.0401 31.8217 14.2957 31.7442 14.5572 31.7442C14.9078 31.7442 15.2441 31.8834 15.492 32.1314C15.74 32.3793 15.8793 32.7156 15.8793 33.0662ZM48.9311 79.3388C42.917 79.3388 37.038 77.5555 32.0375 74.2142C27.037 70.873 23.1396 66.1239 20.8381 60.5676C18.5366 55.0114 17.9344 48.8974 19.1077 42.9989C20.281 37.1004 23.177 31.6822 27.4296 27.4296C31.6822 23.177 37.1004 20.281 42.9989 19.1077C48.8974 17.9344 55.0114 18.5366 60.5676 20.8381C66.1239 23.1396 70.873 27.037 74.2142 32.0375C77.5555 37.038 79.3388 42.917 79.3388 48.9311C79.3297 56.993 76.1231 64.722 70.4226 70.4226C64.722 76.1231 56.993 79.3297 48.9311 79.3388ZM39.0237 43.4697C38.8571 43.3748 38.7131 43.2447 38.6018 43.0885L33.5369 36.0035C33.3581 35.7534 33.272 35.4488 33.2935 35.1421C33.3149 34.8355 33.4426 34.5458 33.6546 34.3231C37.079 30.7314 41.6589 28.4603 46.5907 27.9084C51.5225 27.3565 56.4912 28.559 60.6249 31.3048C60.8037 31.4242 60.9507 31.5855 61.0532 31.7746C61.1556 31.9637 61.2104 32.1749 61.2127 32.3899C61.2151 32.605 61.1649 32.8173 61.0666 33.0086C60.9683 33.1999 60.8249 33.3643 60.6487 33.4876L48.3666 42.0811C48.1486 42.2337 47.8897 42.3169 47.6236 42.32C47.3575 42.3231 47.0967 42.2458 46.8753 42.0982L43.8107 40.0556L40.6113 43.2551C40.3634 43.503 40.0272 43.6423 39.6766 43.6424L39.5669 43.6385C39.3757 43.6223 39.1904 43.5647 39.0237 43.4697ZM57.4532 32.496C54.8211 31.128 51.8975 30.4164 48.9311 30.4217C44.2547 30.4007 39.7486 32.1753 36.3423 35.3795L39.8445 40.2817L42.7081 37.4194C42.9242 37.2032 43.2086 37.0686 43.5128 37.0385C43.817 37.0084 44.1222 37.0846 44.3766 37.2542L47.5905 39.3972L57.4532 32.496ZM42.2443 57.7306C42.3105 57.911 42.3366 58.1036 42.3208 58.2951C42.3043 58.4868 42.2462 58.6726 42.1505 58.8395C42.0549 59.0065 41.9239 59.1505 41.7668 59.2616L35.446 63.7712C35.1883 63.9553 34.8731 64.0409 34.5577 64.0123C34.2422 63.9836 33.9476 63.8427 33.7273 63.6152C30.5263 60.3116 28.4926 56.0525 27.9358 51.4864C27.379 46.9202 28.3296 42.2972 30.6429 38.3212C30.7533 38.1281 30.9109 37.9661 31.1009 37.8505C31.291 37.7348 31.5073 37.6694 31.7296 37.6602C31.9511 37.6521 32.171 37.6993 32.3697 37.7974C32.5684 37.8955 32.7396 38.0414 32.8679 38.2221L40.7634 49.4954C40.916 49.7134 40.9992 49.9723 41.0023 50.2384C41.0054 50.5045 40.9281 50.7653 40.7805 50.9867L38.7379 54.0513L41.9374 57.2507C42.0733 57.3865 42.1781 57.5502 42.2443 57.7306ZM30.4221 48.9309C30.4093 53.3383 31.9876 57.6023 34.8669 60.9393L38.96 58.0162L36.0978 55.1539C35.8816 54.9378 35.7469 54.6534 35.7168 54.3492C35.6867 54.045 35.7629 53.7398 35.9325 53.4854L38.0756 50.2715L31.9636 41.5365C30.9464 43.8689 30.4216 46.3863 30.4221 48.9309ZM62.4163 34.0924L56.0954 38.6007C55.9392 38.7123 55.8091 38.8566 55.7142 39.0235C55.6193 39.1905 55.562 39.3761 55.5461 39.5675C55.5303 39.7589 55.5563 39.9514 55.6224 40.1317C55.6885 40.312 55.7931 40.4758 55.9289 40.6116L59.1283 43.811L57.0857 46.8755C56.9381 47.097 56.8609 47.3578 56.8639 47.6239C56.867 47.8899 56.9503 48.1489 57.1029 48.3668L64.9943 59.6402C65.1164 59.8143 65.2787 59.9565 65.4674 60.0545C65.6562 60.1525 65.8658 60.2036 66.0784 60.2034H66.1326C66.3549 60.1942 66.5712 60.1287 66.7613 60.0131C66.9514 59.8975 67.109 59.7355 67.2194 59.5423C69.5328 55.5659 70.4835 50.9425 69.9267 46.3759C69.3699 41.8093 67.3361 37.5498 64.135 34.2458C63.9143 34.0186 63.6195 33.8782 63.3041 33.85C62.9887 33.8219 62.6736 33.9079 62.4163 34.0924ZM65.8986 56.3257L59.7867 47.5908L61.9298 44.3768C62.0994 44.1225 62.1756 43.8172 62.1454 43.5131C62.1153 43.2088 61.9807 42.9245 61.7645 42.7084L58.9022 39.8461L63.0006 36.923C65.2572 39.5585 66.726 42.7762 67.2387 46.2077C67.7515 49.6392 67.2875 53.1457 65.8999 56.3257H65.8986ZM58.8378 54.3925C59.0047 54.4872 59.1489 54.6171 59.2605 54.7732L64.3254 61.8595C64.5042 62.1096 64.5902 62.4141 64.5688 62.7208C64.5473 63.0275 64.4196 63.3171 64.2077 63.5398C60.7828 67.1309 56.2028 69.4014 51.2712 69.953C46.3395 70.5047 41.3711 69.3023 37.2374 66.5568C37.0585 66.4374 36.9115 66.2761 36.8091 66.0871C36.7066 65.898 36.6519 65.6867 36.6495 65.4717C36.6472 65.2567 36.6973 65.0443 36.7956 64.853C36.8939 64.6618 37.0374 64.4973 37.2136 64.3741L49.4957 55.7806C49.7136 55.628 49.9726 55.5447 50.2386 55.5416C50.5047 55.5386 50.7655 55.6159 50.987 55.7634L54.0515 57.806L57.2509 54.6066C57.3867 54.471 57.5504 54.3666 57.7305 54.3007C57.9107 54.2347 58.1031 54.2087 58.2943 54.2246C58.4855 54.2404 58.671 54.2977 58.8378 54.3925ZM40.409 65.3656C43.0411 66.7336 45.9648 67.4453 48.9311 67.4399C53.6077 67.4619 58.1142 65.6871 61.5199 62.4822L58.0177 57.5799L55.1541 60.4422C54.938 60.6584 54.6536 60.793 54.3494 60.8232C54.0452 60.8533 53.74 60.7771 53.4857 60.6075L50.2717 58.4644L40.409 65.3656ZM33.5065 25.8468C38.0722 22.7961 43.44 21.1678 48.9311 21.1678C56.292 21.1759 63.3491 24.1035 68.554 29.3085C73.7589 34.5134 76.6866 41.5705 76.6947 48.9314C76.6947 54.4225 75.0664 59.7903 72.0157 64.356C68.965 68.9217 64.6289 72.4802 59.5558 74.5816C54.4826 76.6829 48.9003 77.2327 43.5147 76.1615C38.1291 75.0902 33.1821 72.446 29.2993 68.5632C25.4165 64.6804 22.7723 59.7334 21.701 54.3478C20.6298 48.9622 21.1796 43.3799 23.2809 38.3067C25.3823 33.2336 28.9408 28.8975 33.5065 25.8468ZM34.9755 69.8174C39.1064 72.5776 43.963 74.0508 48.9311 74.0508C55.5909 74.0435 61.9759 71.3946 66.6851 66.6854C71.3943 61.9762 74.0432 55.5912 74.0505 48.9314C74.0505 43.9632 72.5773 39.1067 69.8171 34.9758C67.057 30.8449 63.1339 27.6253 58.5439 25.7241C53.9539 23.8229 48.9033 23.3254 44.0306 24.2946C39.1579 25.2639 34.682 27.6563 31.169 31.1693C27.656 34.6823 25.2636 39.1581 24.2944 44.0308C23.3251 48.9035 23.8226 53.9542 25.7238 58.5442C27.625 63.1341 30.8447 67.0573 34.9755 69.8174Z" fill="white"/>
</g>
</svg>
