<svg width="16" height="14" viewBox="0 0 16 14" fill="none" xmlns="http://www.w3.org/2000/svg">
<path fill-rule="evenodd" clip-rule="evenodd" d="M7.76891 3.51733L7.8036 4.08923L7.22555 4.0192C5.12147 3.75076 3.28329 2.84039 1.72257 1.31143L0.959553 0.552786L0.763018 1.11301C0.346826 2.36186 0.612727 3.68073 1.47979 4.56776C1.94223 5.05796 1.83818 5.12799 1.04048 4.8362C0.763018 4.74283 0.52024 4.6728 0.497118 4.70782C0.416192 4.78952 0.693653 5.85162 0.91331 6.27179C1.21389 6.85536 1.82662 7.42726 2.49715 7.76574L3.06363 8.03418L2.3931 8.04585C1.74569 8.04585 1.72257 8.05752 1.79194 8.30262C2.02315 9.06126 2.93646 9.86659 3.95382 10.2167L4.6706 10.4618L4.04631 10.8353C3.12144 11.3722 2.03472 11.6757 0.947992 11.699C0.427753 11.7107 0 11.7574 0 11.7924C0 11.9091 1.41043 12.5627 2.23125 12.8195C4.69372 13.5781 7.61862 13.2513 9.81519 11.9558C11.3759 11.0337 12.9366 9.20132 13.665 7.42726C14.058 6.48188 14.4511 4.7545 14.4511 3.92583C14.4511 3.38895 14.4858 3.31892 15.1332 2.67699C15.5147 2.3035 15.8731 1.895 15.9425 1.77829C16.0581 1.55653 16.0465 1.55653 15.4569 1.75494C14.4742 2.10509 14.3355 2.0584 14.8211 1.53319C15.1794 1.1597 15.6072 0.482757 15.6072 0.284343C15.6072 0.249328 15.4338 0.307685 15.2372 0.412728C15.0291 0.529443 14.5667 0.704514 14.2199 0.809557L13.5956 1.00797L13.0291 0.622814C12.717 0.412728 12.2777 0.1793 12.0464 0.109271C11.4568 -0.0541292 10.5551 -0.0307863 10.0233 0.155957C8.57817 0.681172 7.66487 2.03506 7.76891 3.51733Z" fill="white"/>
</svg>
