<?xml version="1.0" standalone="no"?>
<!DOCTYPE svg PUBLIC "-//W3C//DTD SVG 20010904//EN"
 "http://www.w3.org/TR/2001/REC-SVG-20010904/DTD/svg10.dtd">
<svg version="1.0" xmlns="http://www.w3.org/2000/svg"
 width="93.000000pt" height="93.000000pt" viewBox="0 0 93.000000 93.000000"
 preserveAspectRatio="xMidYMid meet">
<metadata>
Created by potrace 1.11, written by Peter Selinger 2001-2013
</metadata>
<g transform="translate(0.000000,93.000000) scale(0.100000,-0.100000)"
fill="#000000" stroke="none">
<path d="M29 838 c-1 -35 -2 -94 -4 -133 -1 -38 -6 -160 -10 -270 -3 -110 -8
-226 -10 -258 -3 -54 -1 -60 35 -99 37 -42 38 -42 109 -43 40 -1 74 1 76 5 1
3 6 41 10 85 4 44 9 94 10 110 2 17 3 41 4 54 1 34 9 24 82 -112 l64 -118 74
3 73 3 73 153 c40 84 75 150 77 145 3 -4 6 -44 7 -88 5 -169 4 -165 47 -204
37 -36 42 -37 109 -36 l70 1 -2 59 c-1 52 -9 272 -18 530 -2 44 -4 105 -4 135
-1 49 -5 60 -40 98 -38 42 -38 42 -109 42 l-71 0 -106 -215 c-59 -118 -108
-215 -110 -215 -4 0 -196 315 -204 333 -2 5 -22 29 -44 53 l-41 44 -73 0 -73
0 -1 -62z"/>
</g>
</svg>
