<svg width="78" height="78" viewBox="0 0 78 78" fill="none" xmlns="http://www.w3.org/2000/svg">
<path fill-rule="evenodd" clip-rule="evenodd" d="M27.6774 13.8387C27.6774 21.4689 21.4689 27.6774 13.8387 27.6774C6.20855 27.6774 0 21.4689 0 13.8387C0 6.20855 6.20855 0 13.8387 0C21.4689 0 27.6774 6.20855 27.6774 13.8387ZM25.1613 13.8387C25.1613 7.59619 20.0812 2.51613 13.8387 2.51613C7.59619 2.51613 2.51613 7.59619 2.51613 13.8387C2.51613 20.0812 7.59619 25.1613 13.8387 25.1613C20.0812 25.1613 25.1613 20.0812 25.1613 13.8387ZM11.3226 16.3548C11.3226 17.048 11.8875 17.6129 12.5806 17.6129H16.3548V16.3548C16.3548 15.6616 15.79 15.0968 15.0968 15.0968H12.5806C10.4998 15.0968 8.80645 13.4034 8.80645 11.3226V7.54837H12.5806V5.03224H15.0968V7.54837C17.1776 7.54837 18.871 9.24172 18.871 11.3226H16.3548C16.3548 10.6294 15.79 10.0645 15.0968 10.0645H11.3226V11.3226C11.3226 12.0158 11.8875 12.5806 12.5806 12.5806H15.0968C17.1776 12.5806 18.871 14.274 18.871 16.3548V20.129H15.0968V22.6451H12.5806V20.129C10.4998 20.129 8.80645 18.4357 8.80645 16.3548H11.3226ZM13.8387 50.3226C6.20855 50.3226 0 56.5311 0 64.1613C0 71.7915 6.20855 78 13.8387 78C21.4689 78 27.6774 71.7915 27.6774 64.1613C27.6774 56.5311 21.4689 50.3226 13.8387 50.3226ZM13.8387 75.4839C7.59619 75.4839 2.51613 70.4038 2.51613 64.1613C2.51613 57.9188 7.59619 52.8387 13.8387 52.8387C20.0812 52.8387 25.1613 57.9188 25.1613 64.1613C25.1613 70.4038 20.0812 75.4839 13.8387 75.4839ZM40.2581 27.6774V30.1935C43.0334 30.1935 45.2903 32.4505 45.2903 35.2258C45.2903 36.7267 44.6298 38.0778 43.5831 39C44.6298 39.9222 45.2903 41.2733 45.2903 42.7742C45.2903 45.5495 43.0334 47.8064 40.2581 47.8064V50.3226H37.7419V47.8064H35.2258V30.1935H37.7419V27.6774H40.2581ZM40.2581 45.2903C41.6457 45.2903 42.7742 44.1618 42.7742 42.7742C42.7742 41.3865 41.6457 40.2581 40.2581 40.2581H37.7419V45.2903H40.2581ZM37.7419 37.7419H40.2581C41.6457 37.7419 42.7742 36.6134 42.7742 35.2258C42.7742 33.8382 41.6457 32.7097 40.2581 32.7097H37.7419V37.7419ZM64.6821 35.2258H70.6831C71.2039 36.6864 72.5878 37.7419 74.2258 37.7419C76.3066 37.7419 78 36.0486 78 33.9677C78 31.8869 76.3066 30.1935 74.2258 30.1935C72.5878 30.1935 71.2039 31.2491 70.6831 32.7097H63.6404L61.1243 35.2258H54.8982C53.4766 29.2374 48.7626 24.5247 42.7742 23.1018V16.8757L45.2903 14.3595V7.3169C46.7509 6.79606 47.8064 5.41219 47.8064 3.77419C47.8064 1.69335 46.1131 0 44.0323 0C41.9514 0 40.2581 1.69335 40.2581 3.77419C40.2581 5.41219 41.3136 6.79606 42.7742 7.3169V13.3179L40.2581 15.834V22.7093C39.8416 22.6766 39.4252 22.6452 39 22.6452C38.5748 22.6452 38.1584 22.6766 37.7419 22.7093V15.834L35.2258 13.3179V7.3169C36.6864 6.79606 37.7419 5.41219 37.7419 3.77419C37.7419 1.69335 36.0486 0 33.9677 0C31.8869 0 30.1935 1.69335 30.1935 3.77419C30.1935 5.41219 31.2491 6.79606 32.7097 7.3169V14.3595L35.2258 16.8757V23.1018C29.2374 24.5235 24.5247 29.2374 23.1018 35.2258H16.8757L14.3595 32.7097H7.3169C6.79606 31.2491 5.41219 30.1935 3.77419 30.1935C1.69335 30.1935 0 31.8869 0 33.9677C0 36.0486 1.69335 37.7419 3.77419 37.7419C5.41219 37.7419 6.79606 36.6864 7.3169 35.2258H13.3179L15.834 37.7419H22.7093C22.6766 38.1584 22.6452 38.5748 22.6452 39C22.6452 39.4252 22.6766 39.8416 22.7093 40.2581H15.834L13.3179 42.7742H7.3169C6.79606 41.3136 5.41219 40.2581 3.77419 40.2581C1.69335 40.2581 0 41.9514 0 44.0323C0 46.1131 1.69335 47.8064 3.77419 47.8064C5.41219 47.8064 6.79606 46.7509 7.3169 45.2903H14.3595L16.8757 42.7742H23.1018C24.5235 48.7626 29.2374 53.4753 35.2258 54.8982V61.1243L32.7097 63.6404V70.6831C31.2491 71.2039 30.1935 72.5878 30.1935 74.2258C30.1935 76.3066 31.8869 78 33.9677 78C36.0486 78 37.7419 76.3066 37.7419 74.2258C37.7419 72.5878 36.6864 71.2039 35.2258 70.6831V64.6821L37.7419 62.166V55.2907C38.1584 55.3234 38.5748 55.3548 39 55.3548C39.4252 55.3548 39.8416 55.3234 40.2581 55.2907V62.166L42.7742 64.6821V70.6831C41.3136 71.2039 40.2581 72.5878 40.2581 74.2258C40.2581 76.3066 41.9514 78 44.0323 78C46.1131 78 47.8064 76.3066 47.8064 74.2258C47.8064 72.5878 46.7509 71.2039 45.2903 70.6831V63.6404L42.7742 61.1243V54.8982C48.7626 53.4766 53.4753 48.7626 54.8982 42.7742H61.1243L63.6404 45.2903H70.6831C71.2039 46.7509 72.5878 47.8064 74.2258 47.8064C76.3066 47.8064 78 46.1131 78 44.0323C78 41.9514 76.3066 40.2581 74.2258 40.2581C72.5878 40.2581 71.2039 41.3136 70.6831 42.7742H64.6821L62.166 40.2581H55.2907C55.3234 39.8416 55.3548 39.4252 55.3548 39C55.3548 38.5748 55.3234 38.1584 55.2907 37.7419H62.166L64.6821 35.2258ZM74.2258 32.7097C74.919 32.7097 75.4839 33.2745 75.4839 33.9677C75.4839 34.6609 74.919 35.2258 74.2258 35.2258C73.5326 35.2258 72.9677 34.6609 72.9677 33.9677C72.9677 33.2745 73.5326 32.7097 74.2258 32.7097ZM44.0323 2.51613C44.7255 2.51613 45.2903 3.081 45.2903 3.77419C45.2903 4.46739 44.7255 5.03226 44.0323 5.03226C43.3391 5.03226 42.7742 4.46739 42.7742 3.77419C42.7742 3.081 43.3391 2.51613 44.0323 2.51613ZM33.9677 2.51613C34.6609 2.51613 35.2258 3.081 35.2258 3.77419C35.2258 4.46739 34.6609 5.03226 33.9677 5.03226C33.2745 5.03226 32.7097 4.46739 32.7097 3.77419C32.7097 3.081 33.2745 2.51613 33.9677 2.51613ZM3.77419 35.2258C3.081 35.2258 2.51613 34.6609 2.51613 33.9677C2.51613 33.2745 3.081 32.7097 3.77419 32.7097C4.46739 32.7097 5.03226 33.2745 5.03226 33.9677C5.03226 34.6609 4.46739 35.2258 3.77419 35.2258ZM3.77419 45.2903C3.081 45.2903 2.51613 44.7255 2.51613 44.0323C2.51613 43.3391 3.081 42.7742 3.77419 42.7742C4.46739 42.7742 5.03226 43.3391 5.03226 44.0323C5.03226 44.7255 4.46739 45.2903 3.77419 45.2903ZM33.9677 75.4839C33.2745 75.4839 32.7097 74.919 32.7097 74.2258C32.7097 73.5326 33.2745 72.9677 33.9677 72.9677C34.6609 72.9677 35.2258 73.5326 35.2258 74.2258C35.2258 74.919 34.6609 75.4839 33.9677 75.4839ZM44.0323 75.4839C43.3391 75.4839 42.7742 74.919 42.7742 74.2258C42.7742 73.5326 43.3391 72.9677 44.0323 72.9677C44.7255 72.9677 45.2903 73.5326 45.2903 74.2258C45.2903 74.919 44.7255 75.4839 44.0323 75.4839ZM74.2258 42.7742C74.919 42.7742 75.4839 43.3391 75.4839 44.0323C75.4839 44.7255 74.919 45.2903 74.2258 45.2903C73.5326 45.2903 72.9677 44.7255 72.9677 44.0323C72.9677 43.3391 73.5326 42.7742 74.2258 42.7742ZM39 52.8387C31.3698 52.8387 25.1613 46.6302 25.1613 39C25.1613 31.3698 31.3698 25.1613 39 25.1613C46.6302 25.1613 52.8387 31.3698 52.8387 39C52.8387 46.6302 46.6302 52.8387 39 52.8387ZM78 13.8387C78 21.4689 71.7915 27.6774 64.1613 27.6774C56.5311 27.6774 50.3226 21.4689 50.3226 13.8387C50.3226 6.20855 56.5311 0 64.1613 0C71.7915 0 78 6.20855 78 13.8387ZM75.4839 13.8387C75.4839 7.59619 70.4038 2.51613 64.1613 2.51613C57.9188 2.51613 52.8387 7.59619 52.8387 13.8387C52.8387 20.0812 57.9188 25.1613 64.1613 25.1613C70.4038 25.1613 75.4839 20.0812 75.4839 13.8387ZM64.1613 50.3226C56.5311 50.3226 50.3226 56.5311 50.3226 64.1613C50.3226 71.7915 56.5311 78 64.1613 78C71.7915 78 78 71.7915 78 64.1613C78 56.5311 71.7915 50.3226 64.1613 50.3226ZM64.1613 75.4839C57.9188 75.4839 52.8387 70.4038 52.8387 64.1613C52.8387 57.9188 57.9188 52.8387 64.1613 52.8387C70.4038 52.8387 75.4839 57.9188 75.4839 64.1613C75.4839 70.4038 70.4038 75.4839 64.1613 75.4839ZM69.1936 17.6129C69.1936 20.3882 66.9366 22.6451 64.1613 22.6451C61.386 22.6451 59.129 20.3882 59.129 17.6129H56.6129V15.0968H59.129V12.5806H56.6129V10.0645H59.129C59.129 7.28921 61.386 5.03224 64.1613 5.03224C66.9366 5.03224 69.1936 7.28921 69.1936 10.0645H66.6774C66.6774 8.67685 65.5489 7.54837 64.1613 7.54837C62.7736 7.54837 61.6452 8.67685 61.6452 10.0645H64.1613V12.5806H61.6452V15.0968H64.1613V17.6129H61.6452C61.6452 19.0005 62.7736 20.129 64.1613 20.129C65.5489 20.129 66.6774 19.0005 66.6774 17.6129H69.1936ZM70.083 57.5023L68.3041 55.7234L64.1613 59.8662L60.0185 55.7234L58.2396 57.5023L62.9032 62.1659V62.9032H60.3871V65.4193H62.9032V67.9354H60.3871V70.4516H62.9032V72.9677H65.4193V70.4516H67.9355V67.9354H65.4193V65.4193H67.9355V62.9032H65.4193V62.1659L70.083 57.5023ZM8.80645 62.9032V61.6451C8.80645 58.1767 11.6283 55.3548 15.0968 55.3548H17.6129V57.871H15.0968C13.0159 57.871 11.3226 59.5643 11.3226 61.6451V62.9032H13.8387V65.4193H11.3226V70.4516H17.6129V72.9677H8.80645V65.4193H6.29032V62.9032H8.80645Z" fill="white"/>
</svg>
