<svg width="80" height="80" viewBox="0 0 80 80" fill="none" xmlns="http://www.w3.org/2000/svg">
<path fill-rule="evenodd" clip-rule="evenodd" d="M17.3352 0.000488281H73.3336C77.0135 0.00498815 79.9955 2.98707 79.9999 6.66696V45.3325C79.9955 49.0124 77.0133 51.9946 73.3334 51.999H54.9939L57.0672 61.332H61.3337V63.9986H44.2902C42.6883 69.2176 39.2546 73.6822 34.6214 76.5699C24.0092 83.1844 10.0441 79.9435 3.42976 69.3311C-3.18455 58.7188 0.0563546 44.7538 10.6687 38.1394V6.66696C10.673 2.98707 13.6553 0.00482149 17.3352 0.000488281ZM22.6684 77.3316C31.7771 77.3134 39.7255 71.1494 42.0105 62.332C42.4556 60.6351 42.6766 58.8871 42.668 57.1328C42.613 46.0323 33.5697 37.0782 22.4692 37.1332C11.3687 37.1882 2.41462 46.2315 2.46962 57.332C2.52462 68.4325 11.5679 77.3866 22.6684 77.3316ZM44.9798 61.1971L44.9797 61.1973C44.9746 61.2421 44.9695 61.2869 44.9611 61.332H54.3381L52.2675 51.999H44.6931V52.0056C44.8197 52.527 44.9211 53.0509 45.0104 53.5776C45.0374 53.7347 45.0595 53.8919 45.0814 54.0478L45.0837 54.0642C45.1424 54.4549 45.189 54.8469 45.2264 55.2389C45.2313 55.2927 45.2365 55.3465 45.2417 55.4004C45.252 55.5079 45.2624 55.6154 45.2704 55.7229C45.309 56.2655 45.3344 56.7988 45.3344 57.3321C45.3344 57.9161 45.301 58.5068 45.2504 59.1001C45.2375 59.2596 45.2209 59.4191 45.2042 59.5798L45.2024 59.5974C45.1535 60.0881 45.0845 60.5814 44.9957 61.0774C44.9888 61.1174 44.9843 61.1572 44.9798 61.1969L44.9798 61.197L44.9798 61.1971ZM73.3336 49.3324C75.5427 49.3324 77.3335 47.5416 77.3335 45.3325V42.6659H39.9239C39.9628 42.7108 39.9984 42.7583 40.0339 42.8057C40.0616 42.8427 40.0893 42.8796 40.1185 42.9152C40.4105 43.2672 40.6932 43.6245 40.9598 43.9925C41.0718 44.1445 41.1798 44.2979 41.2865 44.4525C41.5337 44.8098 41.7705 45.173 41.9971 45.5418C42.0358 45.6059 42.0754 45.6692 42.1149 45.7324L42.1149 45.7325L42.1149 45.7325L42.1149 45.7326L42.1149 45.7326L42.115 45.7326L42.115 45.7327C42.1625 45.8087 42.2099 45.8847 42.2558 45.9618C42.5518 46.4698 42.8304 46.9804 43.0851 47.5138C43.0934 47.531 43.1012 47.5481 43.1087 47.565L43.1219 47.5951L43.1315 47.6174L43.1315 47.6175C43.1458 47.6507 43.16 47.6835 43.1758 47.7164C43.3958 48.1831 43.5971 48.6564 43.7851 49.1364C43.7888 49.1457 43.7928 49.155 43.7968 49.1645L43.8083 49.1909L43.8181 49.213L43.8182 49.2132L43.8182 49.2133C43.8356 49.2524 43.8534 49.2924 43.8677 49.3324H73.3336ZM37.2413 39.9993H77.3335V6.66696C77.3335 4.45786 75.5427 2.66708 73.3336 2.66708H17.3352C15.1261 2.66708 13.3353 4.45786 13.3353 6.66696V36.6927C13.3731 36.6749 13.4124 36.6605 13.4518 36.6461C13.4861 36.6335 13.5205 36.621 13.554 36.6061C14.1953 36.3234 14.8419 36.0634 15.5086 35.8421C15.5554 35.826 15.6031 35.8119 15.6507 35.7978C15.6897 35.7863 15.7288 35.7747 15.7672 35.7621C16.3904 35.5639 17.02 35.392 17.6565 35.2461C17.7101 35.2339 17.7633 35.2209 17.8163 35.2079C17.8846 35.1912 17.9528 35.1745 18.0218 35.1595C18.7031 35.0155 19.3911 34.9061 20.0818 34.8261C20.1794 34.8145 20.2765 34.8053 20.3737 34.796L20.4231 34.7913L20.5164 34.7821C21.2311 34.7128 21.9484 34.6661 22.6684 34.6661C23.3457 34.6661 24.019 34.6981 24.6896 34.7621C24.8199 34.7738 24.9497 34.7933 25.0796 34.8128L25.0798 34.8128L25.08 34.8128L25.0801 34.8128L25.0803 34.8129L25.0804 34.8129L25.0806 34.8129L25.0808 34.8129L25.0809 34.813L25.0811 34.813L25.0812 34.813L25.0814 34.813L25.0816 34.8131L25.0817 34.8131L25.0819 34.8131L25.082 34.8131C25.1734 34.8268 25.2647 34.8405 25.3563 34.8515C25.8003 34.8995 26.2429 34.9541 26.6816 35.0328C26.8418 35.0624 26.9994 35.1 27.157 35.1377C27.2552 35.1612 27.3534 35.1846 27.4522 35.2061C27.8482 35.2848 28.2455 35.3648 28.6362 35.4728C28.8106 35.5207 28.9849 35.5784 29.1593 35.636C29.2516 35.6665 29.3439 35.697 29.4362 35.7261L29.5856 35.7729C29.9056 35.873 30.2265 35.9734 30.5415 36.0888C30.7154 36.1548 30.8893 36.2294 31.0632 36.304C31.1559 36.3438 31.2487 36.3836 31.3414 36.4221C31.4162 36.4535 31.4909 36.4845 31.5657 36.5156C31.8403 36.6297 32.1144 36.7435 32.3828 36.8714C32.5319 36.9427 32.6778 37.0213 32.8238 37.1001L32.8241 37.1003C32.9403 37.1629 33.0566 37.2257 33.1747 37.2847C33.2563 37.3285 33.338 37.3718 33.4197 37.4151C33.666 37.5457 33.9117 37.6758 34.152 37.8181C34.3428 37.9307 34.5279 38.0525 34.7131 38.1743L34.7131 38.1743L34.7132 38.1743L34.7133 38.1744L34.7133 38.1744L34.7134 38.1745L34.7135 38.1745L34.7136 38.1746L34.7136 38.1746L34.7137 38.1747L34.7138 38.1747L34.7138 38.1748L34.7139 38.1748L34.714 38.1749L34.714 38.1749C34.7848 38.2214 34.8556 38.268 34.9267 38.314C35.0332 38.3849 35.1398 38.4539 35.2459 38.5226C35.4453 38.6516 35.6433 38.7797 35.8373 38.918C36.0234 39.0479 36.2046 39.1918 36.3854 39.3356L36.3854 39.3356L36.3856 39.3358C36.4535 39.3897 36.5213 39.4436 36.5893 39.4967C36.6727 39.562 36.7575 39.6254 36.8422 39.6888C36.9771 39.7896 37.1119 39.8904 37.2413 39.9993ZM5.33551 57.3319H8.0021C8.0116 49.2359 14.5724 42.6751 22.6683 42.6656V39.999C13.1003 40.01 5.34651 47.7638 5.33551 57.3319ZM37.3346 57.332C37.3251 65.428 30.7643 71.9888 22.6683 71.9983V74.6649C32.2364 74.6539 39.9902 66.9001 40.0012 57.332H37.3346ZM30.5026 60.0118C30.2375 58.9733 29.6645 58.0392 28.8588 57.3322C31.0649 55.3961 31.2838 52.0383 29.3478 49.8322C28.6408 49.0266 27.7067 48.4536 26.6682 48.1884V45.3325H24.0016V47.9991H21.3351V45.3325H18.6685V47.9991H16.0019C15.2656 47.9991 14.6686 48.5961 14.6686 49.3324V65.3319C14.6686 66.0682 15.2656 66.6652 16.0019 66.6652H18.6685V69.3318H21.3351V66.6652H24.0016V69.3318H26.6682V66.4759C29.512 65.7498 31.2288 62.8557 30.5026 60.0118ZM25.3349 63.9986H17.3352V58.6655H25.3349C26.8077 58.6655 28.0015 59.8593 28.0015 61.3321C28.0015 62.8048 26.8076 63.9986 25.3349 63.9986ZM17.3352 55.9989V50.6657H25.3349C26.8077 50.6657 28.0015 51.8595 28.0015 53.3323C28.0015 54.8051 26.8076 55.9989 25.3349 55.9989H17.3352ZM65.3338 8H70.6669C71.4033 8 72.0002 8.59698 72.0002 9.33329V14.6665H69.3336V12.5519L54.2701 27.6088C54.2186 27.6603 54.1629 27.7074 54.1036 27.7498C53.5046 28.1781 52.6718 28.0397 52.2435 27.4408L46.589 19.5263L35.6933 32.8433C35.4416 33.1511 35.0656 33.3306 34.668 33.3326C34.2718 33.3328 33.8962 33.1569 33.6427 32.8526L28.0562 26.1488L25.0683 30.1327L22.935 28.5327L26.9349 23.1996C27.1795 22.8731 27.5604 22.6766 27.9682 22.6662C28.3775 22.6472 28.7713 22.8257 29.0268 23.1462L34.6587 29.906L45.6357 16.4891C45.8955 16.1634 46.2955 15.9816 46.7116 15.9998C47.1263 16.0139 47.5108 16.2206 47.7516 16.5584L53.5048 24.6102L67.4484 10.6666H65.3338V8ZM20.0017 8H17.3351V10.6666H20.0017V8ZM17.3351 13.3335H20.0017V16.0001H17.3351V13.3335ZM20.0017 18.6665H17.3351V21.3331H20.0017V18.6665ZM17.3351 23.9995H20.0017V26.6661H17.3351V23.9995ZM20.0017 29.333H17.3351V31.9996H20.0017V29.333ZM37.3346 34.666H40.0012V37.3326H37.3346V34.666ZM45.3343 34.666H42.6678V37.3326H45.3343V34.666ZM48.0009 34.666H50.6675V37.3326H48.0009V34.666ZM56.0007 34.666H53.3341V37.3326H56.0007V34.666ZM58.6673 34.666H61.3339V37.3326H58.6673V34.666ZM66.667 34.666H64.0004V37.3326H66.667V34.666ZM69.3336 34.666H72.0002V37.3326H69.3336V34.666Z" fill="white"/>
</svg>
